<svg width="20" height="18" viewBox="0 0 20 18" fill="none" xmlns="http://www.w3.org/2000/svg">
<path d="M16.0763 9.57379H5.85547C5.59575 9.57379 5.37804 9.48594 5.20234 9.31025C5.02665 9.13455 4.9388 8.91684 4.9388 8.65712C4.9388 8.3974 5.02665 8.17969 5.20234 8.004C5.37804 7.8283 5.59575 7.74045 5.85547 7.74045H16.0763L15.2971 6.96129C15.1138 6.77795 15.026 6.56406 15.0336 6.31962C15.0412 6.07518 15.1291 5.86129 15.2971 5.67795C15.4805 5.49462 15.6982 5.39913 15.9503 5.39149C16.2023 5.38386 16.4201 5.4717 16.6034 5.65504L18.9638 8.01545C19.1471 8.19879 19.2388 8.41268 19.2388 8.65712C19.2388 8.90156 19.1471 9.11545 18.9638 9.29879L16.6034 11.6592C16.4201 11.8425 16.2023 11.9304 15.9503 11.9227C15.6982 11.9151 15.4805 11.8196 15.2971 11.6363C15.1291 11.453 15.0412 11.2391 15.0336 10.9946C15.026 10.7502 15.1138 10.5363 15.2971 10.353L16.0763 9.57379ZM11.3555 4.99045V2.24045H2.1888V15.0738H11.3555V12.3238C11.3555 12.0641 11.4433 11.8464 11.619 11.6707C11.7947 11.495 12.0124 11.4071 12.2721 11.4071C12.5319 11.4071 12.7496 11.495 12.9253 11.6707C13.101 11.8464 13.1888 12.0641 13.1888 12.3238V15.0738C13.1888 15.578 13.0093 16.0096 12.6503 16.3686C12.2912 16.7276 11.8596 16.9071 11.3555 16.9071H2.1888C1.68464 16.9071 1.25304 16.7276 0.89401 16.3686C0.534983 16.0096 0.355469 15.578 0.355469 15.0738V2.24045C0.355469 1.73629 0.534983 1.30469 0.89401 0.945661C1.25304 0.586634 1.68464 0.40712 2.1888 0.40712H11.3555C11.8596 0.40712 12.2912 0.586634 12.6503 0.945661C13.0093 1.30469 13.1888 1.73629 13.1888 2.24045V4.99045C13.1888 5.25018 13.101 5.46788 12.9253 5.64358C12.7496 5.81927 12.5319 5.90712 12.2721 5.90712C12.0124 5.90712 11.7947 5.81927 11.619 5.64358C11.4433 5.46788 11.3555 5.25018 11.3555 4.99045Z" fill="#FFFFFF"/>
</svg>
