<svg width="105" height="96" viewBox="0 0 105 96" fill="none" xmlns="http://www.w3.org/2000/svg">
<path d="M38.5103 95.396C26.7812 95.396 17.398 93.1153 10.3606 88.5541C3.45354 83.8624 0 76.3689 0 66.0734C0 58.9057 1.82451 53.1064 5.47354 48.6754C9.12257 44.2444 14.0748 40.9864 20.3303 38.9012C26.7161 36.6857 33.949 35.578 42.029 35.578C48.0238 35.578 53.1064 36.0993 57.2767 37.1419C61.5773 38.1845 65.0309 39.2922 67.6373 40.4651C70.2438 41.638 71.938 42.4851 72.7199 43.0064C72.7199 37.5328 72.1334 33.1019 70.9605 29.7135C69.7876 26.1948 67.6373 23.6535 64.5096 22.0896C61.5122 20.3954 57.2767 19.5484 51.8031 19.5484C43.8535 19.5484 36.8161 20.3303 30.6909 21.8942C24.5658 23.458 19.5484 25.2825 15.6387 27.3677C11.8593 29.4529 9.25288 31.2122 7.81934 32.6458V26.7812L5.8645 7.62386C6.77676 7.10257 9.18773 6.25547 13.0974 5.08257C17.0071 3.90967 22.3503 2.80193 29.127 1.75935C35.9038 0.586447 43.9838 0 53.367 0C66.2689 0 76.1083 1.88967 82.885 5.66902C89.6618 9.31804 94.2882 14.5961 96.7644 21.5032C99.3708 28.4103 100.674 36.7509 100.674 46.5251V81.7121C100.674 85.3612 101.065 88.0328 101.847 89.727C102.759 91.2908 103.671 92.5289 104.584 93.4411H72.9154V89.336L73.3063 85.6218L72.9154 85.2308C71.8728 86.4037 70.3741 87.5766 68.4192 88.7495C66.4644 89.9224 64.0535 91.0302 61.1864 92.0728C58.3193 92.985 54.9961 93.767 51.2167 94.4186C47.4373 95.0702 43.2019 95.396 38.5103 95.396ZM47.698 75.6521C53.1715 75.6521 57.7328 75.2612 61.3818 74.4792C65.1612 73.567 68.0283 72.3941 69.9831 70.9605C71.938 69.3967 72.9154 67.5722 72.9154 65.487C72.9154 62.4896 70.6347 60.0135 66.0735 58.0586C61.6425 56.1038 55.5825 55.1264 47.8935 55.1264C40.4651 55.1264 35.187 56.1689 32.0593 58.2541C29.0619 60.3393 27.5632 62.9457 27.5632 66.0734C27.5632 69.9831 29.3225 72.5896 32.8412 73.8928C36.3599 75.0657 41.3122 75.6521 47.698 75.6521Z" fill="#4DD5BC"/>
</svg>
