<svg width="97" height="96" viewBox="0 0 97 96" fill="none" xmlns="http://www.w3.org/2000/svg">
<path d="M53.1715 95.396C42.876 95.396 34.2748 94.3534 27.3677 92.2682C20.5909 90.0528 15.1826 86.925 11.1426 82.885C7.10256 78.7147 4.23547 73.6973 2.54128 67.8328C0.847092 61.9683 0 55.3219 0 47.8935C0 33.167 4.10515 21.5032 12.3155 12.9019C20.5258 4.30064 33.1019 0 50.0438 0C59.9483 0 67.9631 1.36838 74.0882 4.10515C80.3437 6.84192 85.1005 10.4909 88.3586 15.0522C91.6166 19.6135 93.8321 24.6961 95.005 30.3C96.3083 35.7735 96.9598 41.3122 96.9598 46.9161V56.1038C96.9598 55.7128 95.1353 55.3219 91.4863 54.9309C87.9676 54.4096 81.9728 54.1489 73.5018 54.1489H28.1496C28.1496 61.3167 30.2999 66.7251 34.6006 70.3741C39.0315 73.8928 46.1993 75.6521 56.1038 75.6521C64.4444 75.6521 71.8728 74.6747 78.3889 72.7199C85.0353 70.6347 89.8573 68.6799 92.8547 66.8554V72.7199L94.8096 87.5766C92.3334 89.2708 87.5766 91.0302 80.5392 92.8547C73.5018 94.5489 64.3792 95.396 53.1715 95.396ZM35.3825 37.3374H69.2011C69.2011 34.4703 68.5496 31.6683 67.2463 28.9316C66.0734 26.1948 64.1186 23.9793 61.3818 22.2851C58.6451 20.4606 54.8657 19.5484 50.0438 19.5484C45.2219 19.5484 41.3122 20.2651 38.3148 21.6987C35.4477 23.1322 33.2974 24.8916 31.8638 26.9767C30.5606 29.0619 29.909 31.2122 29.909 33.4277C29.909 34.7309 30.2999 35.7083 31.0819 36.3599C31.8638 37.0116 33.2974 37.3374 35.3825 37.3374Z" fill="#4DD5BC"/>
</svg>
