<svg width="127" height="122" viewBox="0 0 127 122" fill="none" xmlns="http://www.w3.org/2000/svg">
<path d="M57.2767 121.2C39.5528 121.2 25.5432 116.313 15.2477 106.539C5.08257 96.634 0 81.4515 0 60.9909C0 49.0012 2.28064 38.4451 6.84192 29.3225C11.4032 20.0696 18.6361 12.9019 28.5406 7.81933C38.4451 2.60644 51.2819 0 67.0509 0C79.4315 0 89.6618 0.651608 97.7418 1.95483C105.952 3.25805 111.556 4.56128 114.553 5.8645V11.729L118.463 33.2322C114.944 30.6258 108.754 28.0193 99.8921 25.4129C91.0302 22.8064 80.2134 21.5032 67.4418 21.5032C58.7102 21.5032 51.5425 23.0019 45.9386 25.9993C40.3348 28.8664 36.2296 33.2322 33.6232 39.0967C31.0167 44.9612 29.7135 52.2593 29.7135 60.9909C29.7135 70.3741 30.8864 77.9328 33.2322 83.667C35.578 89.2708 39.3574 93.3108 44.5703 95.7869C49.7832 98.2631 56.6902 99.5011 65.2915 99.5011C71.8076 99.5011 77.0857 98.8495 81.1257 97.5463C85.1657 96.1127 88.1631 94.2231 90.1179 91.8773C92.0728 89.4011 93.0502 86.6644 93.0502 83.667V80.5392C93.0502 77.5418 92.7895 75.8476 92.2682 75.4567C91.8773 74.9354 90.1831 74.6747 87.1857 74.6747H80.9302C76.4992 74.6747 72.7199 75.1308 69.5922 76.0431C66.4644 76.9554 64.2489 77.8676 62.9457 78.7799L64.9005 59.427V53.5625H126.478C125.566 53.6928 124.653 54.6702 123.741 56.4947C122.959 58.1889 122.568 61.1212 122.568 65.2915V107.516C122.568 111.686 122.959 114.684 123.741 116.508C124.653 118.333 125.566 119.245 126.478 119.245H93.0502V116.704L93.4411 111.23L93.0502 110.839C92.1379 112.142 90.3134 113.641 87.5767 115.335C84.8399 116.899 80.9954 118.268 76.0431 119.44C71.2212 120.613 64.9657 121.2 57.2767 121.2Z" fill="#4DD5BC"/>
</svg>
