<svg width="101" height="96" viewBox="0 0 101 96" fill="none" xmlns="http://www.w3.org/2000/svg">
<path d="M50.4347 95.396C37.4025 95.396 27.1722 93.3108 19.7438 89.1405C12.4458 84.9702 7.29803 79.3012 4.30061 72.1334C1.43352 64.9657 0 56.8857 0 47.8935C0 38.7709 1.49867 30.6258 4.49609 23.458C7.62383 16.2903 12.8367 10.6213 20.1348 6.45096C27.4328 2.15032 37.5328 0 50.4347 0C63.3367 0 73.4367 2.15032 80.7347 6.45096C88.0328 10.6213 93.1805 16.2903 96.1779 23.458C99.3057 30.6258 100.869 38.7709 100.869 47.8935C100.869 56.8857 99.3708 64.9657 96.3734 72.1334C93.5063 79.3012 88.4237 84.9702 81.1257 89.1405C73.8276 93.3108 63.5973 95.396 50.4347 95.396ZM50.4347 75.6521C55.9083 75.6521 60.2741 74.8702 63.5322 73.3063C66.9205 71.6122 69.3315 68.7451 70.7651 64.7051C72.3289 60.6651 73.1109 55.0612 73.1109 47.8935C73.1109 40.7257 72.3289 35.1219 70.7651 31.0819C69.3315 26.9116 66.9205 23.9793 63.5322 22.2851C60.2741 20.4606 55.9083 19.5484 50.4347 19.5484C44.9612 19.5484 40.5302 20.4606 37.1419 22.2851C33.8838 24.1096 31.4728 27.107 29.909 31.2774C28.4754 35.4477 27.7587 41.0515 27.7587 48.089C27.7587 54.996 28.4754 60.4696 29.909 64.5096C31.4728 68.5496 33.8838 71.4167 37.1419 73.1108C40.5302 74.805 44.9612 75.6521 50.4347 75.6521Z" fill="#4DD5BC"/>
</svg>
