<svg width="83" height="94" viewBox="0 0 83 94" fill="none" xmlns="http://www.w3.org/2000/svg">
<path d="M0 93.4411C0.912257 93.4411 1.75935 92.5289 2.54128 90.7044C3.45354 88.8799 3.90961 85.8825 3.90961 81.7121V15.6387C3.90961 11.4684 3.45354 8.53611 2.54128 6.84192C1.75935 5.01741 0.912257 4.03999 0 3.90967C5.73419 3.90967 11.5987 3.5187 17.5935 2.73677C23.5883 1.82451 28.28 0.912257 31.6683 0V7.81934L31.2773 11.1426L31.6683 11.5335C32.5806 10.1 34.0141 8.53611 35.9689 6.84192C38.0541 5.01741 40.6605 3.45354 43.7882 2.15032C47.0463 0.716772 50.8257 0 55.1263 0C61.5121 0 67.1811 0.912257 72.1334 2.73677C77.0856 4.43096 80.6043 6.19031 82.6895 8.01482L76.825 34.2096V40.0741C74.8702 37.3374 72.1986 34.5354 68.8102 31.6683C65.5521 28.8012 61.9031 26.3903 57.8631 24.4354C53.9534 22.4806 49.9134 21.5032 45.7431 21.5032C41.0515 21.5032 37.5328 23.1974 35.187 26.5858C32.8412 29.9741 31.6683 35.3174 31.6683 42.6154V81.7121C31.6683 85.8825 32.0593 88.8799 32.8412 90.7044C33.7535 92.5289 34.6657 93.4411 35.578 93.4411H0Z" fill="#4DD5BC"/>
</svg>
