<svg width="120" height="92" viewBox="0 0 120 92" fill="none" xmlns="http://www.w3.org/2000/svg">
<path d="M37.9239 91.4863C38.8361 91.4863 39.4225 90.6392 39.6832 88.945C40.0742 87.1205 39.4877 84.0579 37.9239 79.7573C37.4026 78.0631 36.2297 75.0657 34.4052 70.7651C32.711 66.4644 30.691 61.5122 28.3452 55.9083C25.9994 50.3044 23.5884 44.6354 21.1123 38.9012C18.7665 33.0367 16.551 27.7587 14.4658 23.0671C12.511 18.2451 11.0123 14.5961 9.9697 12.12C8.14519 7.68902 6.2555 4.56128 4.30066 2.73677C2.47615 0.912257 1.04258 0 0 0H39.6832C38.7709 0 38.1845 0.912257 37.9239 2.73677C37.6632 4.56128 38.2496 7.68902 39.6832 12.12C40.4651 14.3355 41.5729 17.7238 43.0064 22.2851C44.5703 26.8464 46.3296 32.0593 48.2845 37.9238C50.2393 43.658 52.1941 49.5225 54.149 55.5173C56.2341 61.5122 58.1238 67.0509 59.818 72.1334H60.0135C61.7077 67.0509 63.4019 62.0335 65.0961 57.0812C66.7903 51.9986 68.4844 46.9812 70.1786 42.029C71.8728 36.9464 73.567 31.929 75.2612 26.9767C76.9554 21.8942 78.6496 16.8116 80.3438 11.729C81.7773 7.5587 82.3638 4.56128 82.1031 2.73677C81.8425 0.912257 81.256 0 80.3438 0H119.245C118.333 0 117.03 0.912257 115.335 2.73677C113.641 4.43096 111.882 7.36322 110.057 11.5335C109.145 13.8793 107.711 17.398 105.757 22.0896C103.802 26.6509 101.586 31.7987 99.1102 37.5328C96.7644 43.1367 94.3534 48.7406 91.8773 54.3444C89.5315 59.9483 87.4464 65.0309 85.6218 69.5921C83.7973 74.1534 82.4941 77.5418 81.7121 79.7573C80.2786 84.1883 79.6922 87.2508 79.9528 88.945C80.2135 90.6392 80.7999 91.4863 81.7121 91.4863H37.9239Z" fill="#4DD5BC"/>
</svg>
